<mxfile host="Electron" agent="Mozilla/5.0 (Macintosh; Intel Mac OS X 10_15_7) AppleWebKit/537.36 (KHTML, like Gecko) draw.io/26.0.9 Chrome/128.0.6613.186 Electron/32.2.5 Safari/537.36" version="26.0.9">
  <diagram name="Page-1" id="J_XYfQa6AzVBbSO5YkP0">
    <mxGraphModel dx="828" dy="536" grid="1" gridSize="10" guides="1" tooltips="1" connect="1" arrows="1" fold="1" page="1" pageScale="1" pageWidth="850" pageHeight="1100" math="0" shadow="0">
      <root>
        <mxCell id="0" />
        <mxCell id="1" parent="0" />
        <mxCell id="JLAAvu1lyQqfxwwNW0Ln-1" value="MicroService A" style="rounded=0;whiteSpace=wrap;html=1;fillColor=light-dark(#0078bf, #ededed);sketch=1;curveFitting=1;jiggle=2;" vertex="1" parent="1">
          <mxGeometry x="50" y="350" width="120" height="60" as="geometry" />
        </mxCell>
        <mxCell id="JLAAvu1lyQqfxwwNW0Ln-2" value="MicroService B" style="rounded=0;whiteSpace=wrap;html=1;fillColor=light-dark(#00aa5b, #ededed);sketch=1;curveFitting=1;jiggle=2;" vertex="1" parent="1">
          <mxGeometry x="50" y="490" width="120" height="60" as="geometry" />
        </mxCell>
        <mxCell id="JLAAvu1lyQqfxwwNW0Ln-3" value="（授权服务器）Authorization Server" style="rounded=1;whiteSpace=wrap;html=1;fillColor=light-dark(#f58a33, #ededed);sketch=1;curveFitting=1;jiggle=2;" vertex="1" parent="1">
          <mxGeometry x="365" y="350" width="120" height="60" as="geometry" />
        </mxCell>
        <mxCell id="JLAAvu1lyQqfxwwNW0Ln-11" value="" style="endArrow=classic;html=1;rounded=0;exitX=1;exitY=0.25;exitDx=0;exitDy=0;entryX=0;entryY=0.25;entryDx=0;entryDy=0;sketch=1;curveFitting=1;jiggle=2;" edge="1" parent="1" source="JLAAvu1lyQqfxwwNW0Ln-1" target="JLAAvu1lyQqfxwwNW0Ln-3">
          <mxGeometry width="50" height="50" relative="1" as="geometry">
            <mxPoint x="300" y="410" as="sourcePoint" />
            <mxPoint x="350" y="360" as="targetPoint" />
          </mxGeometry>
        </mxCell>
        <mxCell id="JLAAvu1lyQqfxwwNW0Ln-13" value="Retrieve Access Token" style="edgeLabel;html=1;align=center;verticalAlign=middle;resizable=0;points=[];" vertex="1" connectable="0" parent="JLAAvu1lyQqfxwwNW0Ln-11">
          <mxGeometry x="-0.1958" y="1" relative="1" as="geometry">
            <mxPoint x="21" as="offset" />
          </mxGeometry>
        </mxCell>
        <mxCell id="JLAAvu1lyQqfxwwNW0Ln-12" value="" style="endArrow=classic;html=1;rounded=0;exitX=0;exitY=0.75;exitDx=0;exitDy=0;entryX=1;entryY=0.75;entryDx=0;entryDy=0;sketch=1;curveFitting=1;jiggle=2;" edge="1" parent="1" source="JLAAvu1lyQqfxwwNW0Ln-3" target="JLAAvu1lyQqfxwwNW0Ln-1">
          <mxGeometry width="50" height="50" relative="1" as="geometry">
            <mxPoint x="300" y="410" as="sourcePoint" />
            <mxPoint x="350" y="360" as="targetPoint" />
          </mxGeometry>
        </mxCell>
        <mxCell id="JLAAvu1lyQqfxwwNW0Ln-14" value="Return Access Token" style="edgeLabel;html=1;align=center;verticalAlign=middle;resizable=0;points=[];" vertex="1" connectable="0" parent="JLAAvu1lyQqfxwwNW0Ln-12">
          <mxGeometry x="0.2319" y="-1" relative="1" as="geometry">
            <mxPoint x="25" as="offset" />
          </mxGeometry>
        </mxCell>
        <mxCell id="JLAAvu1lyQqfxwwNW0Ln-15" value="" style="endArrow=classic;html=1;rounded=0;exitX=0.25;exitY=1;exitDx=0;exitDy=0;entryX=0.25;entryY=0;entryDx=0;entryDy=0;sketch=1;curveFitting=1;jiggle=2;" edge="1" parent="1" source="JLAAvu1lyQqfxwwNW0Ln-1" target="JLAAvu1lyQqfxwwNW0Ln-2">
          <mxGeometry width="50" height="50" relative="1" as="geometry">
            <mxPoint x="300" y="410" as="sourcePoint" />
            <mxPoint x="350" y="360" as="targetPoint" />
          </mxGeometry>
        </mxCell>
        <mxCell id="JLAAvu1lyQqfxwwNW0Ln-16" value="With Access Token" style="edgeLabel;html=1;align=center;verticalAlign=middle;resizable=0;points=[];" vertex="1" connectable="0" parent="JLAAvu1lyQqfxwwNW0Ln-15">
          <mxGeometry x="-0.125" y="-1" relative="1" as="geometry">
            <mxPoint y="15" as="offset" />
          </mxGeometry>
        </mxCell>
        <mxCell id="JLAAvu1lyQqfxwwNW0Ln-17" value="" style="endArrow=classic;html=1;rounded=0;exitX=0.75;exitY=0;exitDx=0;exitDy=0;entryX=0.75;entryY=1;entryDx=0;entryDy=0;sketch=1;curveFitting=1;jiggle=2;" edge="1" parent="1" source="JLAAvu1lyQqfxwwNW0Ln-2" target="JLAAvu1lyQqfxwwNW0Ln-1">
          <mxGeometry width="50" height="50" relative="1" as="geometry">
            <mxPoint x="300" y="410" as="sourcePoint" />
            <mxPoint x="350" y="360" as="targetPoint" />
          </mxGeometry>
        </mxCell>
        <mxCell id="JLAAvu1lyQqfxwwNW0Ln-18" value="Respond" style="edgeLabel;html=1;align=center;verticalAlign=middle;resizable=0;points=[];" vertex="1" connectable="0" parent="JLAAvu1lyQqfxwwNW0Ln-17">
          <mxGeometry x="0.0583" relative="1" as="geometry">
            <mxPoint y="-8" as="offset" />
          </mxGeometry>
        </mxCell>
      </root>
    </mxGraphModel>
  </diagram>
</mxfile>
